<svg xmlns="http://www.w3.org/2000/svg" width="220" height="84.6" viewBox="9 5.3 220 84.6"><path fill="#CD2327" d="M229 77.9c0 6.6-5.4 12-12 12H108c-6.6 0-12-5.4-12-12V17.3c0-6.6 5.4-12 12-12h109c6.6 0 12 5.4 12 12v60.6z"/><path fill="#FFF" d="M179.6 64.9c0 4.6-1.1 6.4-3.5 6.4-1.4 0-3-.7-4.4-2.1V41.1c1.4-1.4 3-2.1 4.4-2.1 2.4 0 3.5 1.4 3.5 6v19.9zm1-33.6c-3.1 0-6.1 1.9-8.9 5.2V16.3h-8.3v62h8.3v-4.7c2.8 3.5 5.9 5.3 8.8 5.3 3.3 0 5.8-1.8 6.9-5.2.6-2 .9-5 .9-9.3V45.9c0-4.4-.6-7.4-1.1-9.2-1-3.5-3.3-5.4-6.6-5.4m-24.1 47h-8.8v-5.1c-3.3 3.8-6.2 5.8-9.2 5.8-2.7 0-4.6-1.3-5.5-3.6-.6-1.4-1-3.6-1-6.8V32h8.8v37.4c.2 1.3.8 1.8 1.9 1.8 1.7 0 3.2-1.5 5.1-4.1V32h8.8l-.1 46.3m46.3-33.8c0-4.3 1.2-5.5 4-5.5s3.9 1.3 3.9 5.6v5.1h-7.9v-5.2zm16.6 12V47c0-4.9-1-8.6-2.7-10.9-2.3-3.2-5.7-4.8-9.9-4.8-4.3 0-7.6 1.7-10 4.8-1.8 2.3-2.8 6.2-2.8 11.1v16.2c0 4.9 1.1 8.4 2.9 10.7 2.4 3.2 5.8 4.7 10.1 4.7 4.4 0 7.8-1.7 10.1-5 1-1.5 1.7-3.2 2-5 .1-.8.3-2.8.3-5.5V62h-8.8c0 3.4 0 5.4-.1 5.8-.5 2.2-1.7 3.4-3.7 3.4-2.9 0-4.1-2.2-4.1-6.4v-8.3h16.7m-96.3 21.8h-9.3V25.1h-9.7v-8.8h29.2v8.8h-10.2v53.2"/><path d="M13.2 78.3V37H9v-5.9l8.4-5.9h4.2v53.1h-8.4zm28.6-53.1c4.2 0 7.6 2 10.2 6s3.9 11 3.9 21-1.3 17-3.9 21-6 6-10.2 6c-4.2 0-7.6-2-10.2-6s-3.9-11-3.9-21.1c0-9.9 1.3-16.9 3.9-20.9s6-6 10.2-6zm0 8.4c-1.6 0-3 1.1-3.9 3.2-1 2.2-1.5 7.3-1.5 15.4s.5 13.2 1.5 15.3c1 2.2 2.3 3.2 3.9 3.2 1.7 0 3-1.1 3.9-3.2.9-2.1 1.4-7.3 1.4-15.3 0-8.1-.5-13.2-1.4-15.4-.9-2.2-2.2-3.2-3.9-3.2zm18.7 44.7V25.4h8.3v28.1L78.5 40h10.3L78.1 54l11.5 24.3h-8.9l-8-17.3-3.8 5v12.3h-8.4z"/></svg>
