<svg xmlns="http://www.w3.org/2000/svg" width="59.3" height="41.7" viewBox="0 0 59.3 41.7"><path fill="#FFF" d="M23.5 28.5l16-8.3-16-8.4v16.7z"/><path opacity=".12" fill-rule="evenodd" clip-rule="evenodd" fill="#420000" d="M23.5 11.9l14 9.4 2-1-16-8.4z"/><linearGradient id="a" gradientUnits="userSpaceOnUse" x1="29.646" x2="29.646" y2="41.703"><stop offset="0" stop-color="#E52D27"/><stop offset="1" stop-color="#BF171D"/></linearGradient><path fill="url(#a)" d="M58.7 9s-.6-4.1-2.4-5.9C54 .7 51.5.7 50.4.6 42.1 0 29.7 0 29.7 0S17.3 0 9 .6C7.7.7 5.2.8 2.9 3.1 1.2 4.9.6 9 .6 9S0 13.8 0 18.6v4.5c0 4.8.6 9.6.6 9.6s.6 4.1 2.4 5.9c2.3 2.4 5.2 2.3 6.5 2.5 4.7.5 20.2.6 20.2.6s12.5 0 20.8-.6c1.2-.1 3.7-.1 5.9-2.5 1.8-1.8 2.4-5.9 2.4-5.9s.6-4.8.6-9.6v-4.5c-.1-4.8-.7-9.6-.7-9.6zM23.5 28.5V11.8l16 8.4-16 8.3z"/></svg>
